<?xml version="1.0" encoding="UTF-8" standalone="no"?>
<!DOCTYPE svg PUBLIC "-//W3C//DTD SVG 1.1//EN"
 "http://www.w3.org/Graphics/SVG/1.1/DTD/svg11.dtd">
<!-- Generated by graphviz version 13.1.0 (20250701.0955)
 -->
<!-- Title: PortOut Pages: 1 -->
<svg width="432pt" height="140pt"
 viewBox="0.00 0.00 432.00 140.00" xmlns="http://www.w3.org/2000/svg" xmlns:xlink="http://www.w3.org/1999/xlink">

<svg id="main" version="1.1" xmlns="http://www.w3.org/2000/svg" xmlns:xlink="http://www.w3.org/1999/xlink" xml:space="preserve">

<style type="text/css"><![CDATA[
.node, .edge {opacity: 0.7;}
.node.selected, .edge.selected {opacity: 1;}
.edge:hover path { stroke: red; }
.edge:hover polygon { stroke: red; fill: red; }
]]></style>
<script type="application/ecmascript" xlink:href="svg.min.js"/>
<svg id="graph" class="graph">
<g id="graph0" class="graph" transform="scale(1 1) rotate(0) translate(4 136)">
<title>PortOut</title>
<!-- Node1 -->
<g id="Node000001" class="node">
<title>Node1</title>
<g id="a_Node000001"><a xlink:title=" ">
<polygon fill="#999999" stroke="#666666" points="235.75,-76 186,-76 186,-56 235.75,-56 235.75,-76"/>
<text xml:space="preserve" text-anchor="middle" x="210.88" y="-62.5" font-family="Helvetica,sans-Serif" font-size="10.00">PortOut</text>
</a>
</g>
</g>
<!-- Node3 -->
<g id="Node000003" class="node">
<title>Node3</title>
<g id="a_Node000003"><a xlink:href="class_m_m_1_1_block_port_1_1_pulse_out.html" target="_top" xlink:title=" ">
<polygon fill="white" stroke="#bfbfbf" points="127.75,-20 0,-20 0,0 127.75,0 127.75,-20"/>
<text xml:space="preserve" text-anchor="middle" x="63.88" y="-6.5" font-family="Helvetica,sans-Serif" font-size="10.00">MM::BlockPort::PulseOut</text>
</a>
</g>
</g>
<!-- Node1&#45;&gt;Node3 -->
<g id="edge2_Node000001_Node000003" class="edge">
<title>Node1&#45;&gt;Node3</title>
<g id="a_edge2_Node000001_Node000003"><a xlink:title=" ">
<path fill="none" stroke="#63b8ff" d="M174.84,-51.76C148.32,-42.02 112.92,-29.02 89.31,-20.34"/>
<polygon fill="#63b8ff" stroke="#63b8ff" points="173.59,-55.03 184.18,-55.2 176,-48.46 173.59,-55.03"/>
</a>
</g>
</g>
<!-- Node4 -->
<g id="Node000004" class="node">
<title>Node4</title>
<g id="a_Node000004"><a xlink:href="class_m_m_1_1_block_port_1_1_scalar_out.html" target="_top" xlink:title=" ">
<polygon fill="white" stroke="#bfbfbf" points="276.25,-20 145.5,-20 145.5,0 276.25,0 276.25,-20"/>
<text xml:space="preserve" text-anchor="middle" x="210.88" y="-6.5" font-family="Helvetica,sans-Serif" font-size="10.00">MM::BlockPort::ScalarOut</text>
</a>
</g>
</g>
<!-- Node1&#45;&gt;Node4 -->
<g id="edge3_Node000001_Node000004" class="edge">
<title>Node1&#45;&gt;Node4</title>
<g id="a_edge3_Node000001_Node000004"><a xlink:title=" ">
<path fill="none" stroke="#63b8ff" d="M210.88,-44.13C210.88,-35.9 210.88,-26.85 210.88,-20.3"/>
<polygon fill="#63b8ff" stroke="#63b8ff" points="207.38,-44.08 210.88,-54.08 214.38,-44.08 207.38,-44.08"/>
</a>
</g>
</g>
<!-- Node5 -->
<g id="Node000005" class="node">
<title>Node5</title>
<g id="a_Node000005"><a xlink:href="class_m_m_1_1_block_port_1_1_signal_out.html" target="_top" xlink:title=" ">
<polygon fill="white" stroke="#bfbfbf" points="423.88,-20 293.88,-20 293.88,0 423.88,0 423.88,-20"/>
<text xml:space="preserve" text-anchor="middle" x="358.88" y="-6.5" font-family="Helvetica,sans-Serif" font-size="10.00">MM::BlockPort::SignalOut</text>
</a>
</g>
</g>
<!-- Node1&#45;&gt;Node5 -->
<g id="edge4_Node000001_Node000005" class="edge">
<title>Node1&#45;&gt;Node5</title>
<g id="a_edge4_Node000001_Node000005"><a xlink:title=" ">
<path fill="none" stroke="#63b8ff" d="M246.77,-51.9C273.37,-42.2 309.01,-29.19 332.9,-20.48"/>
<polygon fill="#63b8ff" stroke="#63b8ff" points="245.6,-48.61 237.4,-55.32 248,-55.18 245.6,-48.61"/>
</a>
</g>
</g>
<!-- Node2 -->
<g id="Node000002" class="node">
<title>Node2</title>
<g id="a_Node000002"><a xlink:href="class_port.html" target="_top" xlink:title=" ">
<polygon fill="white" stroke="#bfbfbf" points="227.88,-132 193.88,-132 193.88,-112 227.88,-112 227.88,-132"/>
<text xml:space="preserve" text-anchor="middle" x="210.88" y="-118.5" font-family="Helvetica,sans-Serif" font-size="10.00">Port</text>
</a>
</g>
</g>
<!-- Node2&#45;&gt;Node1 -->
<g id="edge1_Node000001_Node000002" class="edge">
<title>Node2&#45;&gt;Node1</title>
<g id="a_edge1_Node000001_Node000002"><a xlink:title=" ">
<path fill="none" stroke="#63b8ff" d="M210.88,-100.13C210.88,-91.9 210.88,-82.85 210.88,-76.3"/>
<polygon fill="#63b8ff" stroke="#63b8ff" points="207.38,-100.08 210.88,-110.08 214.38,-100.08 207.38,-100.08"/>
</a>
</g>
</g>
</g>
</svg>
</svg>

<style type='text/css'>
<![CDATA[
[data-mouse-over-selected='false'] { opacity: 0.7; }
[data-mouse-over-selected='true']  { opacity: 1.0; }
]]>
</style>
<script type="application/ecmascript"><![CDATA[
document.addEventListener('DOMContentLoaded', (event) => {
  highlightEdges();
  highlightAdjacentNodes();
});
]]></script>
</svg>
