<?xml version="1.0" encoding="UTF-8" standalone="no"?>
<!DOCTYPE svg PUBLIC "-//W3C//DTD SVG 1.1//EN"
 "http://www.w3.org/Graphics/SVG/1.1/DTD/svg11.dtd">
<!-- Generated by graphviz version 13.1.0 (20250701.0955)
 -->
<!-- Title: Graphical Class Hierarchy Pages: 1 -->
<svg width="215pt" height="66pt"
 viewBox="0.00 0.00 215.00 66.00" xmlns="http://www.w3.org/2000/svg" xmlns:xlink="http://www.w3.org/1999/xlink">
<g id="graph0" class="graph" transform="scale(1 1) rotate(0) translate(4 62)">
<title>Graphical Class Hierarchy</title>
<!-- Node0 -->
<g id="Node000000" class="node">
<title>Node0</title>
<g id="a_Node000000"><a xlink:href="class_u_i_element.html" target="_top" xlink:title=" ">
<polygon fill="white" stroke="#666666" points="62.5,-39 0,-39 0,-19 62.5,-19 62.5,-39"/>
<text xml:space="preserve" text-anchor="middle" x="31.25" y="-25.5" font-family="Helvetica,sans-Serif" font-size="10.00">UIElement</text>
</a>
</g>
</g>
<!-- Node1 -->
<g id="Node000001" class="node">
<title>Node1</title>
<g id="a_Node000001"><a xlink:href="class_m_m_1_1_u_i_1_1_add_element.html" target="_top" xlink:title=" ">
<polygon fill="white" stroke="#666666" points="206.75,-58 98.5,-58 98.5,-38 206.75,-38 206.75,-58"/>
<text xml:space="preserve" text-anchor="middle" x="152.62" y="-44.5" font-family="Helvetica,sans-Serif" font-size="10.00">MM::UI::AddElement</text>
</a>
</g>
</g>
<!-- Node0&#45;&gt;Node1 -->
<g id="edge12_Node000000_Node000001" class="edge">
<title>Node0&#45;&gt;Node1</title>
<g id="a_edge12_Node000000_Node000001"><a xlink:title=" ">
<path fill="none" stroke="#63b8ff" d="M74.34,-35.7C82.09,-36.93 90.27,-38.23 98.29,-39.51"/>
<polygon fill="#63b8ff" stroke="#63b8ff" points="74.91,-32.25 64.49,-34.13 73.81,-39.16 74.91,-32.25"/>
</a>
</g>
</g>
<!-- Node2 -->
<g id="Node000002" class="node">
<title>Node2</title>
<g id="a_Node000002"><a xlink:href="class_m_m_1_1_u_i_1_1_port_link.html" target="_top" xlink:title=" ">
<polygon fill="white" stroke="#666666" points="198.12,-20 107.12,-20 107.12,0 198.12,0 198.12,-20"/>
<text xml:space="preserve" text-anchor="middle" x="152.62" y="-6.5" font-family="Helvetica,sans-Serif" font-size="10.00">MM::UI::PortLink</text>
</a>
</g>
</g>
<!-- Node0&#45;&gt;Node2 -->
<g id="edge13_Node000000_Node000002" class="edge">
<title>Node0&#45;&gt;Node2</title>
<g id="a_edge13_Node000000_Node000002"><a xlink:title=" ">
<path fill="none" stroke="#63b8ff" d="M74.14,-22.33C84.79,-20.64 96.26,-18.81 107.03,-17.1"/>
<polygon fill="#63b8ff" stroke="#63b8ff" points="73.81,-18.84 64.49,-23.87 74.91,-25.75 73.81,-18.84"/>
</a>
</g>
</g>
</g>
</svg>
