<?xml version="1.0" encoding="UTF-8" standalone="no"?>
<!DOCTYPE svg PUBLIC "-//W3C//DTD SVG 1.1//EN"
 "http://www.w3.org/Graphics/SVG/1.1/DTD/svg11.dtd">
<!-- Generated by graphviz version 13.1.0 (20250701.0955)
 -->
<!-- Title: Graphical Class Hierarchy Pages: 1 -->
<svg width="320pt" height="66pt"
 viewBox="0.00 0.00 320.00 66.00" xmlns="http://www.w3.org/2000/svg" xmlns:xlink="http://www.w3.org/1999/xlink">
<g id="graph0" class="graph" transform="scale(1 1) rotate(0) translate(4 62)">
<title>Graphical Class Hierarchy</title>
<!-- Node0 -->
<g id="Node000000" class="node">
<title>Node0</title>
<g id="a_Node000000"><a xlink:title=" ">
<polygon fill="#e0e0e0" stroke="#999999" points="98.5,-45 0,-45 0,-13 98.5,-13 98.5,-45"/>
<text xml:space="preserve" text-anchor="start" x="8" y="-31.5" font-family="Helvetica,sans-Serif" font-size="10.00">std::enable_shared</text>
<text xml:space="preserve" text-anchor="middle" x="49.25" y="-19.5" font-family="Helvetica,sans-Serif" font-size="10.00">_from_this</text>
</a>
</g>
</g>
<!-- Node1 -->
<g id="Node000001" class="node">
<title>Node1</title>
<g id="a_Node000001"><a xlink:href="class_block.html" target="_top" xlink:title=" ">
<polygon fill="white" stroke="#666666" points="175.25,-39 134.5,-39 134.5,-19 175.25,-19 175.25,-39"/>
<text xml:space="preserve" text-anchor="middle" x="154.88" y="-25.5" font-family="Helvetica,sans-Serif" font-size="10.00">Block</text>
</a>
</g>
</g>
<!-- Node0&#45;&gt;Node1 -->
<g id="edge9_Node000000_Node000001" class="edge">
<title>Node0&#45;&gt;Node1</title>
<g id="a_edge9_Node000000_Node000001"><a xlink:title=" ">
<path fill="none" stroke="#63b8ff" d="M110.17,-29C118.81,-29 127.14,-29 134.17,-29"/>
<polygon fill="#63b8ff" stroke="#63b8ff" points="110.24,-25.5 100.24,-29 110.24,-32.5 110.24,-25.5"/>
</a>
</g>
</g>
<!-- Node2 -->
<g id="Node000002" class="node">
<title>Node2</title>
<g id="a_Node000002"><a xlink:href="class_m_m_1_1_blocks_1_1_drone.html" target="_top" xlink:title=" ">
<polygon fill="white" stroke="#666666" points="312,-58 211.25,-58 211.25,-38 312,-38 312,-58"/>
<text xml:space="preserve" text-anchor="middle" x="261.62" y="-44.5" font-family="Helvetica,sans-Serif" font-size="10.00">MM::Blocks::Drone</text>
</a>
</g>
</g>
<!-- Node1&#45;&gt;Node2 -->
<g id="edge10_Node000001_Node000002" class="edge">
<title>Node1&#45;&gt;Node2</title>
<g id="a_edge10_Node000001_Node000002"><a xlink:title=" ">
<path fill="none" stroke="#63b8ff" d="M186.8,-34.61C194.4,-35.99 202.73,-37.5 210.97,-38.99"/>
<polygon fill="#63b8ff" stroke="#63b8ff" points="187.53,-31.18 177.07,-32.84 186.28,-38.07 187.53,-31.18"/>
</a>
</g>
</g>
<!-- Node3 -->
<g id="Node000003" class="node">
<title>Node3</title>
<g id="a_Node000003"><a xlink:href="class_m_m_1_1_blocks_1_1_pulse.html" target="_top" xlink:title=" ">
<polygon fill="white" stroke="#666666" points="311.25,-20 212,-20 212,0 311.25,0 311.25,-20"/>
<text xml:space="preserve" text-anchor="middle" x="261.62" y="-6.5" font-family="Helvetica,sans-Serif" font-size="10.00">MM::Blocks::Pulse</text>
</a>
</g>
</g>
<!-- Node1&#45;&gt;Node3 -->
<g id="edge11_Node000001_Node000003" class="edge">
<title>Node1&#45;&gt;Node3</title>
<g id="a_edge11_Node000001_Node000003"><a xlink:title=" ">
<path fill="none" stroke="#63b8ff" d="M186.81,-23.39C194.68,-21.96 203.33,-20.39 211.85,-18.85"/>
<polygon fill="#63b8ff" stroke="#63b8ff" points="186.28,-19.93 177.07,-25.16 187.53,-26.82 186.28,-19.93"/>
</a>
</g>
</g>
</g>
</svg>
