<?xml version="1.0" encoding="UTF-8" standalone="no"?>
<!DOCTYPE svg PUBLIC "-//W3C//DTD SVG 1.1//EN"
 "http://www.w3.org/Graphics/SVG/1.1/DTD/svg11.dtd">
<!-- Generated by graphviz version 13.1.0 (20250701.0955)
 -->
<!-- Title: Graphical Class Hierarchy Pages: 1 -->
<svg width="295pt" height="218pt"
 viewBox="0.00 0.00 295.00 218.00" xmlns="http://www.w3.org/2000/svg" xmlns:xlink="http://www.w3.org/1999/xlink">
<g id="graph0" class="graph" transform="scale(1 1) rotate(0) translate(4 214)">
<title>Graphical Class Hierarchy</title>
<!-- Node0 -->
<g id="Node000000" class="node">
<title>Node0</title>
<g id="a_Node000000"><a xlink:href="class_port.html" target="_top" xlink:title=" ">
<polygon fill="white" stroke="#666666" points="34,-105 0,-105 0,-85 34,-85 34,-105"/>
<text xml:space="preserve" text-anchor="middle" x="17" y="-91.5" font-family="Helvetica,sans-Serif" font-size="10.00">Port</text>
</a>
</g>
</g>
<!-- Node1 -->
<g id="Node000001" class="node">
<title>Node1</title>
<g id="a_Node000001"><a xlink:href="class_port_in.html" target="_top" xlink:title=" ">
<polygon fill="white" stroke="#666666" points="116,-143 73.75,-143 73.75,-123 116,-123 116,-143"/>
<text xml:space="preserve" text-anchor="middle" x="94.88" y="-129.5" font-family="Helvetica,sans-Serif" font-size="10.00">PortIn</text>
</a>
</g>
</g>
<!-- Node0&#45;&gt;Node1 -->
<g id="edge1_Node000000_Node000001" class="edge">
<title>Node0&#45;&gt;Node1</title>
<g id="a_edge1_Node000000_Node000001"><a xlink:title=" ">
<path fill="none" stroke="#63b8ff" d="M44.56,-108.3C54.01,-113.04 64.51,-118.29 73.38,-122.74"/>
<polygon fill="#63b8ff" stroke="#63b8ff" points="46.33,-105.27 35.82,-103.92 43.19,-111.53 46.33,-105.27"/>
</a>
</g>
</g>
<!-- Node5 -->
<g id="Node000005" class="node">
<title>Node5</title>
<g id="a_Node000005"><a xlink:href="class_port_out.html" target="_top" xlink:title=" ">
<polygon fill="white" stroke="#666666" points="119.75,-86 70,-86 70,-66 119.75,-66 119.75,-86"/>
<text xml:space="preserve" text-anchor="middle" x="94.88" y="-72.5" font-family="Helvetica,sans-Serif" font-size="10.00">PortOut</text>
</a>
</g>
</g>
<!-- Node0&#45;&gt;Node5 -->
<g id="edge5_Node000000_Node000005" class="edge">
<title>Node0&#45;&gt;Node5</title>
<g id="a_edge5_Node000000_Node000005"><a xlink:title=" ">
<path fill="none" stroke="#63b8ff" d="M45.42,-88.13C53.35,-86.15 61.95,-84 69.66,-82.06"/>
<polygon fill="#63b8ff" stroke="#63b8ff" points="44.78,-84.69 35.93,-90.51 46.48,-91.48 44.78,-84.69"/>
</a>
</g>
</g>
<!-- Node2 -->
<g id="Node000002" class="node">
<title>Node2</title>
<g id="a_Node000002"><a xlink:href="class_m_m_1_1_block_port_1_1_pulse_in.html" target="_top" xlink:title=" ">
<polygon fill="white" stroke="#666666" points="281.25,-210 161,-210 161,-190 281.25,-190 281.25,-210"/>
<text xml:space="preserve" text-anchor="middle" x="221.12" y="-196.5" font-family="Helvetica,sans-Serif" font-size="10.00">MM::BlockPort::PulseIn</text>
</a>
</g>
</g>
<!-- Node1&#45;&gt;Node2 -->
<g id="edge2_Node000001_Node000002" class="edge">
<title>Node1&#45;&gt;Node2</title>
<g id="a_edge2_Node000001_Node000002"><a xlink:title=" ">
<path fill="none" stroke="#63b8ff" d="M114.44,-151.05C125.64,-161.08 140.62,-173.1 155.75,-181 162.15,-184.35 169.23,-187.18 176.28,-189.57"/>
<polygon fill="#63b8ff" stroke="#63b8ff" points="116.83,-148.49 107.12,-144.25 112.07,-153.62 116.83,-148.49"/>
</a>
</g>
</g>
<!-- Node3 -->
<g id="Node000003" class="node">
<title>Node3</title>
<g id="a_Node000003"><a xlink:href="class_m_m_1_1_block_port_1_1_scalar_in.html" target="_top" xlink:title=" ">
<polygon fill="white" stroke="#666666" points="282.75,-172 159.5,-172 159.5,-152 282.75,-152 282.75,-172"/>
<text xml:space="preserve" text-anchor="middle" x="221.12" y="-158.5" font-family="Helvetica,sans-Serif" font-size="10.00">MM::BlockPort::ScalarIn</text>
</a>
</g>
</g>
<!-- Node1&#45;&gt;Node3 -->
<g id="edge3_Node000001_Node000003" class="edge">
<title>Node1&#45;&gt;Node3</title>
<g id="a_edge3_Node000001_Node000003"><a xlink:title=" ">
<path fill="none" stroke="#63b8ff" d="M127.33,-140.34C141.88,-143.74 159.43,-147.83 175.33,-151.55"/>
<polygon fill="#63b8ff" stroke="#63b8ff" points="128.4,-137 117.87,-138.13 126.81,-143.81 128.4,-137"/>
</a>
</g>
</g>
<!-- Node4 -->
<g id="Node000004" class="node">
<title>Node4</title>
<g id="a_Node000004"><a xlink:href="class_m_m_1_1_block_port_1_1_signal_in.html" target="_top" xlink:title=" ">
<polygon fill="white" stroke="#666666" points="282.38,-134 159.88,-134 159.88,-114 282.38,-114 282.38,-134"/>
<text xml:space="preserve" text-anchor="middle" x="221.12" y="-120.5" font-family="Helvetica,sans-Serif" font-size="10.00">MM::BlockPort::SignalIn</text>
</a>
</g>
</g>
<!-- Node1&#45;&gt;Node4 -->
<g id="edge4_Node000001_Node000004" class="edge">
<title>Node1&#45;&gt;Node4</title>
<g id="a_edge4_Node000001_Node000004"><a xlink:title=" ">
<path fill="none" stroke="#63b8ff" d="M127.59,-130.7C137.39,-129.99 148.53,-129.19 159.6,-128.38"/>
<polygon fill="#63b8ff" stroke="#63b8ff" points="127.62,-127.19 117.9,-131.4 128.13,-134.17 127.62,-127.19"/>
</a>
</g>
</g>
<!-- Node6 -->
<g id="Node000006" class="node">
<title>Node6</title>
<g id="a_Node000006"><a xlink:href="class_m_m_1_1_block_port_1_1_pulse_out.html" target="_top" xlink:title=" ">
<polygon fill="white" stroke="#666666" points="285,-96 157.25,-96 157.25,-76 285,-76 285,-96"/>
<text xml:space="preserve" text-anchor="middle" x="221.12" y="-82.5" font-family="Helvetica,sans-Serif" font-size="10.00">MM::BlockPort::PulseOut</text>
</a>
</g>
</g>
<!-- Node5&#45;&gt;Node6 -->
<g id="edge6_Node000005_Node000006" class="edge">
<title>Node5&#45;&gt;Node6</title>
<g id="a_edge6_Node000005_Node000006"><a xlink:title=" ">
<path fill="none" stroke="#63b8ff" d="M131.6,-78.88C139.58,-79.52 148.27,-80.22 156.99,-80.92"/>
<polygon fill="#63b8ff" stroke="#63b8ff" points="131.88,-75.39 121.64,-78.07 131.32,-82.36 131.88,-75.39"/>
</a>
</g>
</g>
<!-- Node7 -->
<g id="Node000007" class="node">
<title>Node7</title>
<g id="a_Node000007"><a xlink:href="class_m_m_1_1_block_port_1_1_scalar_out.html" target="_top" xlink:title=" ">
<polygon fill="white" stroke="#666666" points="286.5,-58 155.75,-58 155.75,-38 286.5,-38 286.5,-58"/>
<text xml:space="preserve" text-anchor="middle" x="221.12" y="-44.5" font-family="Helvetica,sans-Serif" font-size="10.00">MM::BlockPort::ScalarOut</text>
</a>
</g>
</g>
<!-- Node5&#45;&gt;Node7 -->
<g id="edge7_Node000005_Node000007" class="edge">
<title>Node5&#45;&gt;Node7</title>
<g id="a_edge7_Node000005_Node000007"><a xlink:title=" ">
<path fill="none" stroke="#63b8ff" d="M131.12,-68.06C144.31,-65.09 159.49,-61.66 173.54,-58.5"/>
<polygon fill="#63b8ff" stroke="#63b8ff" points="130.59,-64.59 121.6,-70.2 132.13,-71.42 130.59,-64.59"/>
</a>
</g>
</g>
<!-- Node8 -->
<g id="Node000008" class="node">
<title>Node8</title>
<g id="a_Node000008"><a xlink:href="class_m_m_1_1_block_port_1_1_signal_out.html" target="_top" xlink:title=" ">
<polygon fill="white" stroke="#666666" points="286.12,-20 156.12,-20 156.12,0 286.12,0 286.12,-20"/>
<text xml:space="preserve" text-anchor="middle" x="221.12" y="-6.5" font-family="Helvetica,sans-Serif" font-size="10.00">MM::BlockPort::SignalOut</text>
</a>
</g>
</g>
<!-- Node5&#45;&gt;Node8 -->
<g id="edge8_Node000005_Node000008" class="edge">
<title>Node5&#45;&gt;Node8</title>
<g id="a_edge8_Node000005_Node000008"><a xlink:title=" ">
<path fill="none" stroke="#63b8ff" d="M114.92,-57.98C126.08,-48.24 140.89,-36.67 155.75,-29 162.17,-25.69 169.26,-22.87 176.31,-20.49"/>
<polygon fill="#63b8ff" stroke="#63b8ff" points="112.67,-55.3 107.59,-64.6 117.36,-60.49 112.67,-55.3"/>
</a>
</g>
</g>
</g>
</svg>
